# xmcd
#
# Track frame offsets: 
#        150
#        14637
#        33257
#
# Disc length: 600 seconds
#
# Revision: 1
# Processed by: cddbd v1.5.2PL0 Copyright (c) Steve Scherf et al.
# Submitted via: ExactAudioCopy v0.95b4
#
DISCID=1c025603
DTITLE=Manic Street Preachers - Stay Beautiful
DYEAR=1900
DGENRE=
TTITLE0=Stay Beautiful
TTITLE1=R. P. McMurphy
TTITLE2=Soul Contamination
EXTD=
EXTT0=
EXTT1=
EXTT2=
PLAYORDER=
